<?xml version="1.0" encoding="UTF-8"?>
<svg xmlns="http://www.w3.org/2000/svg" width="292" height="75" viewBox="0 0 292 75">
  <defs>
    <linearGradient id="3obha" x1="-.03" x2="26.48" y1="26.51" y2="26.51" gradientUnits="userSpaceOnUse">
      <stop offset="0" stop-color="#3b7abe"></stop>
      <stop offset="1" stop-color="#54a7dd"></stop>
    </linearGradient>
    <linearGradient id="3obhb" x1="83" x2="89.86" y1="41.25" y2="33.08" gradientUnits="userSpaceOnUse">
      <stop offset="0" stop-color="#3b7abe"></stop>
      <stop offset="1" stop-color="#54a7dd"></stop>
    </linearGradient>
    <linearGradient id="3obhc" x1="48.84" x2="70.1" y1="22.59" y2="22.59" gradientUnits="userSpaceOnUse">
      <stop offset="0" stop-color="#f08a05"></stop>
      <stop offset="1" stop-color="#ffa81e"></stop>
    </linearGradient>
    <linearGradient id="3obhd" x1="24.74" x2="31.77" y1="4.35" y2="4.35" gradientUnits="userSpaceOnUse">
      <stop offset="0" stop-color="#ab163e"></stop>
      <stop offset="1" stop-color="#d61449"></stop>
    </linearGradient>
    <linearGradient id="3obhe" x1="14.51" x2="28.65" y1="65.51" y2="65.51" gradientUnits="userSpaceOnUse">
      <stop offset="0" stop-color="#ab163e"></stop>
      <stop offset="1" stop-color="#d61449"></stop>
    </linearGradient>
    <linearGradient id="3obhf" x1="10.84" x2="35.31" y1="69.38" y2="38.67" gradientUnits="userSpaceOnUse">
      <stop offset="0" stop-color="#00975f"></stop>
      <stop offset="1" stop-color="#82be5a"></stop>
    </linearGradient>
  </defs>
  <g>
    <g>
      <g>
        <g>
          <path fill="#fff"
                d="M67.29 52.172V46.28h3.205c1.033 0 1.757.207 2.274.723.516.517.827 1.24.827 2.068 0 .827-.31 1.55-.827 2.17-.517.62-1.24.93-1.964.93h-3.411zm-5.478 13.747c0 .724.723 1.137 2.067 1.034h1.24c1.448 0 2.171-.414 2.171-1.137V57.03h1.447c1.137 0 1.861.207 2.378.517.517.31.93.827 1.344 1.653l2.997 7.133c.207.517.827.723 2.067.723h1.448c1.447 0 2.17-.206 2.17-.723 0-.207-.103-.414-.207-.724L77.73 57.65a8.45 8.45 0 0 0-1.24-2.067c-.517-.62-1.034-1.034-1.447-1.24v-.104c1.343-.517 2.377-1.24 3.1-2.274.724-1.034 1.138-2.17 1.138-3.514 0-4.549-2.998-6.823-8.993-6.823h-7.029c-.93 0-1.447.517-1.447 1.448v22.843z"></path>
        </g>
        <g>
          <path fill="#fff"
                d="M83.519 65.92V49.07c0-.723.723-1.136 2.17-1.136h1.034c1.447 0 2.17.413 2.17 1.137v16.745c0 .723-.723 1.137-2.17 1.137h-1.034c-1.447.103-2.17-.31-2.17-1.034z"></path>
        </g>
        <g>
          <path fill="#fff"
                d="M92.098 64.679c0-.414.207-.93.723-1.654.414-.724.827-1.034 1.24-1.034 0 0 .518.207 1.345.517.827.31 1.55.517 2.274.517 1.447 0 2.17-.517 2.17-1.654 0-.62-.206-1.034-.723-1.344-.517-.31-1.137-.62-1.757-.93-.724-.207-1.448-.517-2.171-.827-.724-.31-1.344-.93-1.86-1.654-.518-.723-.724-1.757-.724-2.997 0-1.86.62-3.205 1.757-4.342 1.24-1.033 2.79-1.55 4.858-1.55.93 0 1.86.103 2.791.31 1.757.414 2.584 1.034 2.584 1.964 0 .31-.207.827-.517 1.55-.413.724-.723 1.137-1.033 1.137 0 0-.414-.103-1.034-.413-.724-.207-1.344-.413-1.964-.413-1.344 0-1.964.413-1.964 1.343 0 .517.207.827.724 1.137.516.31 1.137.62 1.757.827a9.813 9.813 0 0 1 2.17.93c.724.414 1.344.93 1.758 1.758.517.827.723 1.757.723 2.997 0 1.86-.62 3.411-1.86 4.548-1.24 1.137-2.791 1.758-4.652 1.758-1.86 0-3.41-.207-4.651-.62-1.344-.414-1.964-1.034-1.964-1.861z"></path>
        </g>
        <g>
          <path fill="#fff"
                d="M108.326 65.92V40.801c0-.724.724-1.138 2.17-1.138h1.035c1.447 0 2.17.414 2.17 1.138v14.367h.104l4.34-6.512c.311-.413 1.035-.723 2.172-.723h1.343c1.344 0 2.068.206 2.068.517 0 .206-.104.413-.31.723l-5.065 7.132 5.891 9.303c.207.31.31.62.31.724 0 .31-.723.517-2.067.517h-1.447c-1.137 0-1.86-.207-2.17-.724l-5.065-8.373h-.104v7.856c0 .724-.723 1.137-2.17 1.137h-1.034c-1.447.31-2.17-.103-2.17-.827z"></path>
        </g>
        <g>
          <path fill="#fff"
                d="M126.829 54.239c0-8.58 3.927-12.92 11.783-12.92 1.757 0 3.308.206 4.755.723s2.17 1.034 2.17 1.55c0 .31-.103.724-.413 1.344-.31.517-.517.827-.827.827 0 0-.31-.103-.827-.413-.516-.31-1.137-.517-1.964-.827-.826-.31-1.757-.414-2.79-.414-2.895 0-5.065.827-6.409 2.378-1.344 1.653-2.067 4.134-2.067 7.649 0 3.514.723 6.098 2.067 7.752 1.344 1.654 3.514 2.48 6.305 2.48 1.137 0 2.068-.103 3.101-.413.93-.31 1.757-.62 2.274-.93.517-.31.827-.413.93-.413.207 0 .517.31.827.826.31.517.517.93.517 1.137 0 .517-.723 1.138-2.274 1.758-1.55.62-3.204.93-5.271.93-4.032 0-6.926-1.034-8.786-3.101-1.861-2.067-3.101-5.478-3.101-9.923z"></path>
        </g>
        <g>
          <path fill="#fff"
                d="M149.672 66.23V40.49c0-.516.517-.827 1.447-.827h.104c.93 0 1.447.31 1.447.827v9.82c1.654-1.654 3.514-2.48 5.582-2.48 1.343 0 2.584.31 3.72 1.033.62.413 1.138 1.034 1.448 1.86.413.827.517 1.861.517 2.998v12.61c0 .518-.517.828-1.447.828h-.104c-.93 0-1.447-.31-1.447-.827V53.929c0-1.137-.31-1.964-.93-2.584-.62-.62-1.447-.93-2.481-.93-1.034 0-1.86.206-2.687.62-.724.413-1.344.827-1.654 1.24l-.517.62v13.231c0 .517-.517.827-1.447.827h-.104c-1.033.103-1.447-.207-1.447-.724z"></path>
        </g>
        <g>
          <path fill="#fff"
                d="M170.862 61.578c0-1.24.517-2.17 1.55-2.584.517-.207 1.034-.414 1.448-.62.827-.31 2.79-.517 5.788-.517v4.238a10.104 10.104 0 0 1-2.584 1.86c-.93.414-1.964.62-3.1.62-2.068 0-3.102-1.033-3.102-2.997zm8.786-6.409c-2.067 0-3.928.207-5.685.31-1.654.207-3.1.827-4.445 1.758-1.343 1.033-1.964 2.48-1.964 4.34 0 1.861.517 3.309 1.654 4.239 1.137.93 2.584 1.344 4.445 1.344 2.48 0 4.445-.827 6.099-2.688 0 0 .103.207.103.414 0 .206.103.413.103.516 0 .104.104.207.104.414s.103.31.103.413c.103.104.103.207.207.31.103.104.206.207.31.207.103.104.31.104.517.104.206 0 .62-.104 1.033-.207.517-.104.724-.31.724-.62 0-.104 0-.517-.207-1.448-.103-.62-.207-1.653-.207-3.1v-8.063c0-1.757-.62-3.1-1.86-4.135-1.24-1.033-2.894-1.55-4.858-1.55-1.964 0-3.618.31-5.065.827-1.344.517-2.068 1.034-2.068 1.55 0 .31.104.62.414 1.137s.62.724.827.724c0 0 .31-.103.827-.414 1.55-.723 3.1-1.137 4.858-1.137 2.687 0 4.031.93 4.031 2.998z"></path>
        </g>
        <g>
          <path fill="#fff"
                d="M187.607 62.198V40.491c0-.516.517-.826 1.447-.826h.104c.93 0 1.447.31 1.447.826v21.397c0 1.757.62 2.687 1.964 2.687.413 0 .723 0 1.033-.103.31-.103.414-.103.517-.103.207 0 .414.206.517.62.103.413.207.827.207 1.034 0 .723-.93 1.137-2.688 1.137-1.24 0-2.274-.414-3.204-1.137-.827-.724-1.344-1.964-1.344-3.825z"></path>
        </g>
        <g>
          <path fill="#fff"
                d="M197.53 62.198V40.491c0-.516.517-.826 1.447-.826h.104c.93 0 1.447.31 1.447.826v21.397c0 1.757.62 2.687 1.964 2.687.413 0 .723 0 1.033-.103.31-.103.414-.103.517-.103.207 0 .414.206.517.62.104.413.207.827.207 1.034 0 .723-.93 1.137-2.688 1.137-1.24 0-2.274-.414-3.204-1.137-.93-.724-1.344-1.964-1.344-3.825z"></path>
        </g>
        <g>
          <path fill="#fff"
                d="M209.624 56.1c.31-3.825 1.964-5.686 5.065-5.686 2.894 0 4.341 1.861 4.341 5.686zm-1.034 8.682c1.447 1.654 3.618 2.378 6.72 2.584 1.756 0 3.203-.31 4.547-.827 1.344-.516 1.964-1.033 1.964-1.55 0-.31-.103-.62-.413-1.137s-.62-.724-.827-.724c0 0-.31.104-.724.31-1.447.724-2.894 1.137-4.548 1.137-1.757 0-3.1-.516-4.031-1.447-.93-.93-1.447-2.48-1.55-4.444H221.2c.207 0 .413-.207.723-.62.31-.414.414-.724.414-.93 0-6.306-2.48-9.407-7.65-9.407-2.687 0-4.65.827-6.098 2.48-1.447 1.655-2.17 4.135-2.17 7.34 0 3.307.723 5.685 2.17 7.235z"></path>
        </g>
        <g>
          <path fill="#fff"
                d="M226.06 66.23V53.514c0-1.447-.104-2.48-.208-3.1-.206-.827-.206-1.344-.206-1.448 0-.31.206-.516.723-.62.414-.103.827-.207 1.034-.207.207 0 .413 0 .517.104.103 0 .206.103.31.207.103.103.103.206.206.31 0 .103.104.206.104.413s.103.31.103.414c0 .103.104.31.104.516 0 .207.103.31.103.414 1.654-1.757 3.411-2.688 5.375-2.688s3.514.517 4.548 1.55c1.034 1.034 1.55 2.482 1.55 4.342v12.61c0 .518-.516.828-1.447.828-.93 0-1.447-.31-1.447-.827V53.929c0-1.137-.31-1.964-.93-2.584-.62-.62-1.55-.93-2.688-.93-1.757 0-3.307.826-4.548 2.584v13.23c0 .517-.516.827-1.447.827h-.31c-.93 0-1.447-.31-1.447-.827z"></path>
        </g>
        <g>
          <path fill="#fff"
                d="M251.9 50.414c2.688 0 4.032 1.24 4.032 3.618s-1.344 3.618-4.032 3.618c-2.687 0-4.03-1.24-4.03-3.618 0-2.377 1.343-3.618 4.03-3.618zm-5.271 19.123c0-.724.413-1.344 1.24-1.86.724-.62 1.55-1.138 2.48-1.448.311 0 .828.104 1.448.207 2.377.31 4.031.724 4.962 1.24.516.31.826.827.826 1.448 0 .826-.516 1.55-1.55 2.067-1.034.517-2.274.827-3.928.827-3.721 0-5.478-.827-5.478-2.481zm-3.101.31c0 1.757.723 3.204 2.17 3.928 1.448.724 3.515 1.034 6.202 1.034 2.791 0 4.859-.62 6.512-1.654 1.55-1.034 2.378-2.378 2.378-4.031 0-1.344-.414-2.378-1.24-3.205-.93-.827-1.861-1.344-3.102-1.654a22.078 22.078 0 0 0-3.617-.62 40.748 40.748 0 0 1-3.101-.62c-.827-.207-1.24-.62-1.24-1.137 0-.93 1.033-1.447 3.1-1.55h.414c2.274 0 4.134-.62 5.375-1.758 1.343-1.137 1.964-2.687 1.964-4.444 0-1.344-.414-2.481-1.24-3.411h2.583c.517 0 .724-.414.724-1.137v-.414c0-.723-.207-1.137-.724-1.137h-6.202c-.723-.103-1.55-.207-2.377-.207-2.274 0-4.135.62-5.375 1.758-1.24 1.137-1.86 2.687-1.86 4.444 0 1.137.206 2.274.826 3.205a6.317 6.317 0 0 0 2.481 2.17c-1.86.62-2.79 1.654-2.79 2.998 0 1.344.723 2.377 2.273 2.997-2.79 1.034-4.134 2.481-4.134 4.445z"></path>
        </g>
        <g>
          <path fill="#fff"
                d="M266.371 56.1c.31-3.825 1.964-5.686 5.065-5.686 2.895 0 4.342 1.861 4.342 5.686zm-1.137 8.682c1.448 1.654 3.722 2.378 6.72 2.584 1.756 0 3.203-.31 4.547-.827 1.344-.516 1.964-1.033 1.964-1.55 0-.31-.103-.62-.413-1.137s-.62-.724-.827-.724c0 0-.31.104-.724.31-1.447.724-2.894 1.137-4.548 1.137-1.757 0-3.1-.516-4.031-1.447-.93-.93-1.447-2.48-1.55-4.444h11.473c.207 0 .413-.207.724-.62.31-.414.413-.724.413-.93 0-6.306-2.48-9.407-7.649-9.407-2.688 0-4.651.827-6.099 2.48-1.447 1.655-2.17 4.135-2.17 7.34 0 3.307.723 5.685 2.17 7.235z"></path>
        </g>
        <g>
          <path fill="#fff"
                d="M283.013 66.23V53.514c0-1.447-.103-2.48-.206-3.1-.207-.827-.207-1.344-.207-1.448 0-.31.207-.516.723-.62.414-.103.827-.207 1.034-.207.207 0 .413 0 .517.104.103 0 .207.103.31.207.103.103.103.206.207.31 0 .103.103.206.103.413s.103.31.103.414c0 .103.104.31.104.516 0 .207.103.31.103.414 1.24-1.757 2.688-2.688 4.238-2.688.724 0 1.24.104 1.55.414.414.31.517.62.517 1.033 0 .414-.103.827-.206 1.24-.104.414-.31.621-.517.621-.104 0-.31-.103-.724-.207-.413-.103-.827-.206-1.343-.206-.517 0-1.034.206-1.654.516-.517.414-.93.724-1.24 1.137l-.414.517v13.231c0 .517-.517.827-1.447.827h-.104c-1.033.103-1.447-.207-1.447-.724z"></path>
        </g>
      </g>
      <g>
        <path fill="url(#3obha)"
              d="M0 26.537c0-7.307 5.923-13.23 13.23-13.23s13.231 5.923 13.231 13.23-5.924 13.23-13.23 13.23C5.922 39.768 0 33.845 0 26.538z"></path>
      </g>
      <g>
        <path fill="url(#3obhb)" d="M81.038 37.184a5.375 5.375 0 1 1 10.75 0 5.375 5.375 0 0 1-10.75 0z"></path>
      </g>
      <g>
        <path fill="url(#3obhc)"
              d="M48.788 22.61c0-5.88 4.767-10.647 10.647-10.647S70.08 16.729 70.08 22.609c0 5.88-4.767 10.647-10.646 10.647-5.88 0-10.647-4.767-10.647-10.647z"></path>
      </g>
      <g>
        <path fill="url(#3obhd)" d="M24.704 4.314a3.514 3.514 0 1 1 7.029 0 3.514 3.514 0 0 1-7.03 0z"></path>
      </g>
      <g>
        <path fill="url(#3obhe)"
              d="M21.603 58.477c-3.928 0-7.029 3.204-7.029 7.029 0 3.824 3.204 7.029 7.029 7.029 3.928 0 7.029-3.205 7.029-7.03 0-3.824-3.205-7.028-7.03-7.028z"></path>
      </g>
      <g>
        <g>
          <path fill="url(#3obhf)"
                d="M29.045 22.713h-.413c.31 1.24.413 2.48.413 3.72 0 8.787-7.132 15.816-15.815 15.816-1.86 0-3.617-.31-5.168-.93-.103.826-.207 1.653-.207 2.48 0 5.995 2.481 11.37 6.512 15.195 1.758-2.068 4.342-3.308 7.236-3.308 5.168 0 9.406 4.135 9.613 9.2 10.75-1.034 19.122-10.13 19.122-21.087-.103-11.577-9.613-21.086-21.293-21.086z"></path>
        </g>
      </g>
    </g>
  </g>
</svg>
